<svg xmlns="http://www.w3.org/2000/svg" xmlns:xlink="http://www.w3.org/1999/xlink" preserveAspectRatio="xMidYMid" width="27" height="42" viewBox="0 0 27 42">
  <defs>
    <style>
      .cls-1 {
        fill: #299d37;
        fill-rule: evenodd;
      }
    </style>
  </defs>
  <path d="M13.500,-0.000 C6.044,-0.000 -0.000,6.067 -0.000,13.551 C-0.000,14.806 0.171,16.020 0.489,17.174 C0.616,17.635 0.766,18.088 0.940,18.528 L1.349,19.462 L13.500,42.000 L25.667,19.430 L26.036,18.588 C26.219,18.129 26.378,17.657 26.511,17.174 C26.829,16.020 27.000,14.806 27.000,13.551 C27.000,6.067 20.956,-0.000 13.500,-0.000 ZM13.500,20.080 C9.845,20.080 6.873,17.096 6.873,13.428 C6.873,9.760 9.845,6.776 13.500,6.776 C17.154,6.776 20.127,9.760 20.127,13.428 C20.127,17.096 17.154,20.080 13.500,20.080 Z" class="cls-1"/>
</svg>
