<svg xmlns="http://www.w3.org/2000/svg" xmlns:xlink="http://www.w3.org/1999/xlink" preserveAspectRatio="xMidYMid" width="18" height="18" viewBox="0 0 18 18">
  <defs>
    <style>
      .cls-1 {
        fill: #9f9f9f;
        fill-rule: evenodd;
      }
    </style>
  </defs>
  <path d="M16.875,3.937 L14.625,3.937 L14.625,-0.000 L3.375,-0.000 L3.375,3.937 L1.125,3.937 C0.503,3.937 -0.000,4.441 -0.000,5.062 L-0.000,14.062 C-0.000,14.684 0.503,15.187 1.125,15.187 L3.375,15.187 L3.375,18.000 L14.625,18.000 L14.625,15.187 L16.875,15.187 C17.497,15.187 18.000,14.684 18.000,14.062 L18.000,5.062 C18.000,4.441 17.497,3.937 16.875,3.937 ZM5.062,1.687 L12.937,1.687 L12.937,3.937 L5.062,3.937 L5.062,1.687 ZM12.937,16.312 L5.062,16.312 L5.062,12.375 L12.937,12.375 L12.937,16.312 ZM16.312,13.500 L14.625,13.500 L14.625,10.687 L3.375,10.687 L3.375,13.500 L1.687,13.500 L1.687,5.625 L16.312,5.625 L16.312,13.500 ZM14.625,6.750 L12.937,6.750 L12.937,8.437 L14.625,8.437 L14.625,6.750 Z" class="cls-1"/>
</svg>
