<svg xmlns="http://www.w3.org/2000/svg" preserveAspectRatio="xMidYMid" width="18" height="18" viewBox="0 0 18 18"><defs><style>.cls-1{fill:#9f9f9f;fill-rule:evenodd}</style></defs><path d="M16.875 3.937h-2.25V0H3.375v3.937h-2.25C.503 3.937 0 4.441 0 5.062v9c0 .622.503 1.125 1.125 1.125h2.25V18h11.25v-2.813h2.25c.622 0 1.125-.503 1.125-1.125v-9c0-.621-.503-1.125-1.125-1.125zM5.062 1.687h7.875v2.25H5.062v-2.25zm7.875 14.625H5.062v-3.937h7.875v3.937zm3.375-2.812h-1.687v-2.813H3.375V13.5H1.687V5.625h14.625V13.5zm-1.687-6.75h-1.688v1.687h1.688V6.75z" class="cls-1"/></svg>